<svg width="18" height="17" viewBox="0 0 18 17" fill="none" xmlns="http://www.w3.org/2000/svg">
<g opacity="0.5">
<path d="M18 11.7053C18 14.2289 15.984 16.2732 13.473 16.2822H13.464H4.545C2.043 16.2822 0 14.247 0 11.7234V11.7144C0 11.7144 0.0054 7.71091 0.0126 5.69742C0.0135 5.31933 0.4455 5.10767 0.7398 5.34285C2.8782 7.04789 6.7023 10.1568 6.75 10.1975C7.389 10.7121 8.199 11.0025 9.027 11.0025C9.855 11.0025 10.665 10.7121 11.304 10.1875C11.3517 10.1558 15.0903 7.14015 17.2611 5.40707C17.5563 5.17099 17.9901 5.38265 17.991 5.75984C18 7.75794 18 11.7053 18 11.7053Z" fill="#292928"/>
<path d="M17.5283 2.41852C16.7489 0.942443 15.2153 0 13.5269 0H4.5449C2.8565 0 1.3229 0.942443 0.543495 2.41852C0.368895 2.74864 0.451695 3.16017 0.742396 3.39352L7.4249 8.76508C7.8929 9.14495 8.4599 9.33398 9.0269 9.33398C9.0305 9.33398 9.0332 9.33398 9.0359 9.33398C9.0386 9.33398 9.0422 9.33398 9.0449 9.33398C9.61191 9.33398 10.1789 9.14495 10.6469 8.76508L17.3294 3.39352C17.6201 3.16017 17.7029 2.74864 17.5283 2.41852Z" fill="#292928"/>
</g>
</svg>
