<svg width="20" height="21" viewBox="0 0 20 21" fill="none" xmlns="http://www.w3.org/2000/svg">
<path fill-rule="evenodd" clip-rule="evenodd" d="M5.67 0H14.34C17.73 0 20 2.39174 20 5.9492V14.1595C20 17.7069 17.73 20.0986 14.34 20.0986H5.67C2.28 20.0986 0 17.7069 0 14.1595V5.9492C0 2.39174 2.28 0 5.67 0ZM5.52 11.2559C4.86001 11.2559 4.32001 10.7129 4.32001 10.0493C4.32001 9.3857 4.86001 8.84375 5.52 8.84375C6.18 8.84375 6.72 9.3857 6.72 10.0493C6.72 10.7129 6.18 11.2559 5.52 11.2559ZM8.79999 10.0493C8.79999 10.7129 9.33999 11.2559 10 11.2559C10.66 11.2559 11.2 10.7129 11.2 10.0493C11.2 9.3857 10.66 8.84375 10 8.84375C9.33999 8.84375 8.79999 9.3857 8.79999 10.0493ZM13.28 10.0493C13.28 10.7129 13.82 11.2559 14.48 11.2559C15.14 11.2559 15.67 10.7129 15.67 10.0493C15.67 9.3857 15.14 8.84375 14.48 8.84375C13.82 8.84375 13.28 9.3857 13.28 10.0493Z" fill="#292928"/>
</svg>
