<svg width="58" height="58" viewBox="0 0 58 58" fill="none" xmlns="http://www.w3.org/2000/svg">
<g clip-path="url(#clip0)">
<path d="M51.3908 26.1284H47.5792C47.6261 25.9504 47.6538 25.7648 47.6538 25.5725V23.9822C47.6538 23.7515 47.6178 23.5288 47.551 23.3194C48.4629 23.0317 49.1251 22.1917 49.1251 21.2021V19.6119C49.1251 18.3855 48.1087 17.3876 46.8596 17.3876H43.4399C42.9706 17.3876 42.5903 17.761 42.5903 18.2218C42.5903 18.6826 42.9706 19.0559 43.4399 19.0559H46.8596C47.1719 19.0559 47.4259 19.3053 47.4259 19.6119V21.2021C47.4259 21.5087 47.1719 21.758 46.8596 21.758C45.5522 21.758 37.9057 21.758 36.3678 21.758V19.0559H40.043C40.5123 19.0559 40.8926 18.6826 40.8926 18.2218C40.8926 17.761 40.5123 17.3876 40.043 17.3876H36.3678V1.04339C36.3678 0.714294 36.1707 0.415898 35.8647 0.281659C35.5587 0.147753 35.2009 0.202583 34.9512 0.422237L31.7271 3.25972L28.5029 0.422237C28.1803 0.1383 27.6915 0.138188 27.3686 0.422349L24.1452 3.25961L20.9216 0.422349C20.5987 0.138188 20.11 0.138188 19.7872 0.422349L16.5639 3.25961L13.3404 0.422349C13.0176 0.138188 12.5289 0.138188 12.206 0.422349L8.98318 3.25961L5.76045 0.422349C5.51089 0.202472 5.15303 0.147642 4.84695 0.281659C4.54086 0.415898 4.34375 0.714294 4.34375 1.04339V9.46976C4.34375 9.93053 4.72404 10.3039 5.19336 10.3039C5.66268 10.3039 6.04297 9.93053 6.04297 9.46976V2.91172L8.4161 5.00094C8.73895 5.2851 9.22787 5.2851 9.5505 5.00094L12.7733 2.16368L15.9968 5.00094C16.3196 5.2851 16.8083 5.2851 17.1312 5.00094L20.3545 2.16368L23.5781 5.00094C23.901 5.2851 24.3897 5.2851 24.7125 5.00094L27.9359 2.16357L31.16 5.00105C31.4827 5.28499 31.9716 5.28499 32.2942 5.00105L34.6687 2.91128V34.6025C33.2739 33.7991 31.6521 33.3361 29.9214 33.3361C27.0821 33.3361 24.5345 34.5785 22.8073 36.5365H12.8389C12.3696 36.5365 11.9893 36.9098 11.9893 37.3706C11.9893 37.8314 12.3696 38.2047 12.8389 38.2047H21.6316C21.0189 39.3201 20.6351 40.5729 20.5369 41.9024H12.8391C12.3697 41.9024 11.9894 42.2757 11.9894 42.7365C11.9894 43.1973 12.3697 43.5706 12.8391 43.5706H20.5628C20.6748 44.6055 20.9626 45.6049 21.4233 46.5526C21.6255 46.9685 22.133 47.1447 22.556 46.9461C22.9794 46.7477 23.1589 46.2497 22.9568 45.834C22.46 44.8124 22.2083 43.7166 22.2083 42.577C22.2083 38.4015 25.6685 35.0044 29.9215 35.0044C34.1746 35.0044 37.6347 38.4015 37.6347 42.577C37.6347 46.7526 34.1746 50.1497 29.9215 50.1497C28.0395 50.1497 26.2261 49.4753 24.8155 48.2504C24.4639 47.9453 23.927 47.9776 23.6162 48.3226C23.3053 48.6678 23.3383 49.1949 23.6897 49.5001C25.4112 50.9947 27.6244 51.818 29.9215 51.818C31.6522 51.818 33.274 51.355 34.6688 50.5515V54.4506L32.2943 52.3608C31.9717 52.0769 31.4828 52.0769 31.1601 52.3608L27.936 55.1983L24.7126 52.3609C24.3898 52.0768 23.9011 52.0768 23.5782 52.3609L20.3546 55.1982L17.1313 52.3609C16.8084 52.0768 16.3197 52.0768 15.9969 52.3609L12.7735 55.1982L9.55061 52.3609C9.22776 52.0768 8.73906 52.0768 8.41621 52.3609L6.04308 54.4501V12.8048C6.04308 12.3441 5.6628 11.9707 5.19347 11.9707C4.72415 11.9707 4.34386 12.3441 4.34386 12.8048V56.3184C4.34386 56.6475 4.54097 56.9458 4.84706 57.0801C5.15337 57.2141 5.511 57.1589 5.76056 56.9394L8.98318 54.1021L12.206 56.9394C12.5289 57.2236 13.0176 57.2236 13.3404 56.9394L16.5639 54.1021L19.7872 56.9394C20.11 57.2236 20.5987 57.2236 20.9216 56.9394L24.1452 54.102L27.3686 56.9394C27.6915 57.2236 28.1803 57.2234 28.5029 56.9395L31.727 54.102L34.9511 56.9395C35.2007 57.1592 35.5585 57.2141 35.8645 57.0801C36.1706 56.9458 36.3677 56.6475 36.3677 56.3184V54.0188H45.3883C46.6374 54.0188 47.6538 53.021 47.6538 51.7946V50.2043C47.6538 49.6785 47.466 49.1955 47.154 48.8143C47.466 48.4332 47.6538 47.95 47.6538 47.4242V45.8339C47.6538 45.6299 47.6233 45.4332 47.5707 45.2455C48.6434 45.0706 49.4648 44.1558 49.4648 43.0538V41.4636C49.4648 40.3617 48.6434 39.4467 47.5706 39.272C47.6233 39.0841 47.6537 38.8874 47.6537 38.6834V37.0933C47.6537 36.8895 47.6232 36.6929 47.5707 36.5052C48.6446 36.3315 49.4673 35.4162 49.4673 34.3132V32.7229C49.4673 32.5307 49.4397 32.3451 49.3928 32.1671H51.3906C52.6397 32.1671 53.6561 31.1692 53.6561 29.9429V28.3526C53.6563 27.1262 52.64 26.1284 51.3908 26.1284ZM45.3883 23.4263C45.7006 23.4263 45.9546 23.6757 45.9546 23.9822V25.5725C45.9546 25.8791 45.7006 26.1284 45.3883 26.1284C43.5419 26.1284 38.2122 26.1284 36.3677 26.1284V23.4263H45.3883ZM38.2839 30.4988H36.3678V27.7967H38.2841C38.2372 27.9748 38.2095 28.1604 38.2095 28.3526V29.9429C38.2094 30.135 38.237 30.3208 38.2839 30.4988ZM45.9546 37.0933V38.6835C45.9546 38.9902 45.7006 39.2395 45.3883 39.2395H38.6957C38.3014 38.2438 37.7366 37.3318 37.036 36.5374H45.3883C45.7006 36.5374 45.9546 36.7867 45.9546 37.0933ZM45.9546 45.8339V47.4242C45.9546 47.7308 45.7006 47.9802 45.3883 47.9802H37.5498C38.1482 47.168 38.6167 46.2579 38.9224 45.278H45.3883C45.7006 45.278 45.9546 45.5275 45.9546 45.8339ZM45.9546 51.7946C45.9546 52.1012 45.7006 52.3506 45.3883 52.3506H36.3677V49.6484H45.3883C45.7006 49.6484 45.9546 49.8978 45.9546 50.2043V51.7946ZM47.7657 41.4637V43.0539C47.7657 43.3605 47.5117 43.6099 47.1994 43.6099C44.9064 43.6099 41.8572 43.6099 39.2733 43.6099C39.312 43.2706 39.3336 42.9264 39.3336 42.577C39.3336 42.0069 39.278 41.4496 39.1768 40.9078H47.1993C47.5117 40.9078 47.7657 41.1571 47.7657 41.4637ZM47.7682 32.7229V34.3132C47.7682 34.6198 47.5142 34.8691 47.202 34.8691C45.5239 34.8691 37.6704 34.8691 36.3677 34.8691V32.1671H47.202C47.5142 32.1671 47.7682 32.4164 47.7682 32.7229ZM51.9571 29.9429C51.9571 30.2495 51.7031 30.4988 51.3908 30.4988C50.0444 30.4988 41.6579 30.4988 40.4749 30.4988C40.1627 30.4988 39.9087 30.2495 39.9087 29.9429V28.3526C39.9087 28.046 40.1627 27.7967 40.4749 27.7967H51.3908C51.7031 27.7967 51.9571 28.046 51.9571 28.3526V29.9429Z" fill="#FF9999"/>
<path d="M9.61573 16.9119C9.22298 16.6597 8.69645 16.7678 8.43953 17.1533C8.18261 17.5387 8.29271 18.0557 8.68535 18.308C9.43923 18.7923 9.98887 18.98 10.676 19.0436V19.5267C10.676 19.9875 11.0563 20.3609 11.5256 20.3609C11.995 20.3609 12.3753 19.9875 12.3753 19.5267V18.9647C13.7461 18.615 14.6246 17.4621 14.8193 16.325C15.0711 14.8543 14.2579 13.5252 12.7955 13.0179C12.6571 12.9698 12.5163 12.92 12.3753 12.8687V10.2318C13.0399 10.3263 13.5419 10.5612 13.5617 10.5708C13.981 10.7754 14.4894 10.6089 14.6994 10.1978C14.9098 9.78612 14.7403 9.28487 14.321 9.07834C14.2702 9.0532 13.458 8.66083 12.3753 8.55328V8.18337C12.3753 7.7226 11.995 7.34924 11.5256 7.34924C11.0563 7.34924 10.676 7.7226 10.676 8.18337V8.67006C10.6305 8.68185 10.585 8.69375 10.5394 8.70721C9.5524 8.99915 8.81539 9.82616 8.61602 10.8654C8.43296 11.8197 8.74912 12.7436 9.44093 13.2763C9.76265 13.5242 10.1543 13.7515 10.676 13.9872V17.3657C10.3203 17.3122 10.0461 17.1885 9.61573 16.9119ZM13.1436 16.0485C13.0716 16.4696 12.8108 16.9116 12.3754 17.1723V14.649C13.217 15.0169 13.1962 15.7418 13.1436 16.0485ZM10.4897 11.9639C10.3016 11.8191 10.2217 11.5091 10.2859 11.1743C10.3302 10.9434 10.454 10.6788 10.676 10.4937V12.0942C10.6099 12.0514 10.547 12.008 10.4897 11.9639Z" fill="#FF9999"/>
<path d="M21.4033 12.8382H25.3901C25.8595 12.8382 26.2397 12.465 26.2397 12.0043C26.2397 11.5436 25.8595 11.1703 25.3901 11.1703H21.4033C20.934 11.1703 20.5537 11.5436 20.5537 12.0043C20.5537 12.465 20.934 12.8382 21.4033 12.8382Z" fill="#FF9999"/>
<path d="M21.4033 16.8753H29.9214C30.3907 16.8753 30.771 16.5019 30.771 16.0411C30.771 15.5804 30.3907 15.207 29.9214 15.207H21.4033C20.934 15.207 20.5537 15.5804 20.5537 16.0411C20.5537 16.5019 20.934 16.8753 21.4033 16.8753Z" fill="#FF9999"/>
<path d="M11.9893 26.6388C11.9893 27.0996 12.3695 27.4729 12.8389 27.4729H27.8728C28.3421 27.4729 28.7224 27.0996 28.7224 26.6388C28.7224 26.178 28.3421 25.8047 27.8728 25.8047H12.8389C12.3697 25.8047 11.9893 26.178 11.9893 26.6388Z" fill="#FF9999"/>
<path d="M27.8728 31.1706H12.8389C12.3695 31.1706 11.9893 31.544 11.9893 32.0049C11.9893 32.4657 12.3695 32.8391 12.8389 32.8391H27.8728C28.3421 32.8391 28.7224 32.4657 28.7224 32.0049C28.7224 31.544 28.3421 31.1706 27.8728 31.1706Z" fill="#FF9999"/>
</g>
<defs>
<clipPath id="clip0">
<rect width="58" height="56.9432" fill="white" transform="translate(0 0.209229)"/>
</clipPath>
</defs>
</svg>
