<svg width="46" height="46" viewBox="0 0 46 46" fill="none" xmlns="http://www.w3.org/2000/svg">
<path d="M27.8552 27.0562L19.2167 18.3537C18.9686 18.0879 18.6077 17.9772 18.2469 18.0215C17.886 18.0658 17.5702 18.3094 17.4123 18.6194L10.1948 32.7029C9.92413 33.2565 10.1497 33.9208 10.691 34.1865C10.8489 34.2751 11.0293 34.2972 11.1872 34.2972C11.5932 34.2972 11.9992 34.0758 12.2022 33.6772L18.698 20.9888L27.3139 29.6692C27.562 29.9127 27.9229 30.0456 28.2838 30.0013C28.6446 29.957 28.9604 29.7356 29.1183 29.4256L38.9522 11.5112L39.7191 18.0436C39.7867 18.6194 40.2829 19.018 40.8468 19.018H40.9821C41.5686 18.9737 42.0197 18.4201 41.952 17.8001L40.8243 8.10105C40.7792 7.79103 40.6213 7.52531 40.3732 7.34816C40.1251 7.17101 39.8093 7.08243 39.5161 7.14886L29.9077 8.69893C29.2987 8.78751 28.8702 9.36325 28.983 9.96113C29.0732 10.559 29.6596 10.9797 30.2686 10.869L37.3734 9.71755C37.3734 9.73969 37.3508 9.73969 37.3508 9.76184L27.8552 27.0562ZM42.764 25.2182C41.6137 25.2182 40.6664 26.0597 40.6664 27.1226L40.3957 41.6711H4.1952V4.60232H21.0888C22.194 4.60232 23.0962 3.783 23.0962 2.78652C23.0962 1.79005 22.194 0.970726 21.0662 0.99287H1.48862C1.10519 0.99287 0.721755 1.10359 0.428542 1.32503C0.157884 1.54647 0 1.83434 0 2.14435V44.1291C0 44.4391 0.157884 44.727 0.428542 44.9484C0.6992 45.1699 1.08263 45.2806 1.48862 45.2806H43.5985C43.9819 45.2806 44.3654 45.1699 44.636 44.9484C44.9067 44.727 45.0646 44.4391 45.0646 44.1291L45.1097 27.1226C45.1097 26.0597 43.9368 25.2182 42.764 25.2182Z" fill="#FF9999"/>
</svg>
