<svg width="55" height="55" viewBox="0 0 55 55" fill="none" xmlns="http://www.w3.org/2000/svg">
<g clip-path="url(#clip0)">
<path fill-rule="evenodd" clip-rule="evenodd" d="M50.659 21.988H14.0097L49.2118 11.9763C49.4854 11.8984 49.7162 11.7168 49.8538 11.4721C49.9914 11.2269 50.0242 10.9386 49.9449 10.6699L48.1027 4.42652C47.3667 1.93286 45.0018 0.19104 42.3515 0.19104C41.793 0.19104 41.2366 0.268903 40.6969 0.422156L7.64582 9.82211C6.11715 10.2567 4.85033 11.2545 4.07782 12.6309C3.30572 14.0073 3.12445 15.5922 3.56714 17.0926L5.36688 23.1922V48.3196C5.36688 51.5561 8.04865 54.189 11.3447 54.189H24.253C24.8463 54.189 25.3272 53.7168 25.3272 53.1343C25.3272 52.5518 24.8463 52.0797 24.253 52.0797H11.3452C9.23323 52.0797 7.51532 50.3931 7.51532 48.3196V33.9673H13.0186H13.0211H13.0232H21.4357H21.4382H21.4407H29.8532H29.8557H29.8582H38.2707H38.2732H38.2753H49.5848V48.3196C49.5848 50.3931 47.8669 52.0797 45.755 52.0797H32.8467C32.2538 52.0797 31.7725 52.5518 31.7725 53.1343C31.7725 53.7168 32.2538 54.189 32.8467 54.189H45.755C49.0515 54.189 51.7333 51.5561 51.7333 48.3196V23.0427C51.7333 22.4602 51.2524 21.988 50.659 21.988ZM31.7171 31.8581L36.2813 24.0973H42.2176L37.6539 31.8581H31.7171ZM23.2996 31.8581L27.8638 24.0973H33.8001L29.2364 31.8581H23.2996ZM14.8825 31.8581L19.4463 24.0973H25.383L20.8188 31.8581H14.8825ZM18.8764 18.2049L11.2335 10.9979L16.96 9.36935C17.0003 9.42703 17.0473 9.48141 17.101 9.53208L24.7439 16.7391L19.0174 18.3676C18.9771 18.31 18.9297 18.2552 18.8764 18.2049ZM33.271 4.93324L40.9139 12.1403L35.1874 13.7688C35.1471 13.7111 35.1001 13.6563 35.0464 13.6061L27.4035 6.39904L33.13 4.77051C33.1703 4.82819 33.2173 4.88257 33.271 4.93324ZM25.1858 7.23287L32.8287 14.4395L27.1022 16.0684C27.0619 16.0107 27.0149 15.956 26.9612 15.9057L19.3183 8.69866L25.0448 7.07014C25.0855 7.1274 25.1325 7.1822 25.1858 7.23287ZM41.2949 2.44823C41.6398 2.35018 41.9952 2.30033 42.3515 2.30033C44.0513 2.30033 45.5674 3.41595 46.0391 5.01358L47.5824 10.2436L43.2725 11.4692C43.2318 11.4115 43.1848 11.3571 43.1311 11.3064L35.4886 4.09983L41.2949 2.44823ZM5.9598 13.6485C6.45494 12.7656 7.26606 12.1263 8.24377 11.8482L8.87487 11.6686C8.91558 11.7262 8.96257 11.781 9.01587 11.8313L16.6588 19.0383L7.17417 21.7359L5.63082 16.5059C5.34758 15.5465 5.46465 14.5318 5.9598 13.6485ZM7.51532 24.0973H16.9655L12.4018 31.8581H7.51532V24.0973ZM40.1346 31.8581L44.6984 24.0973H49.5848V31.8581H40.1346Z" fill="#FF9999"/>
<path fill-rule="evenodd" clip-rule="evenodd" d="M35.9776 42.9162C35.9776 42.5392 35.7729 42.1911 35.4405 42.0029L26.0029 36.6534C25.6706 36.4651 25.261 36.4651 24.9287 36.6534C24.5964 36.8417 24.3916 37.1898 24.3916 37.5668V48.2657C24.3916 48.6422 24.5964 48.9903 24.9287 49.1786C25.0949 49.2729 25.2804 49.3203 25.4658 49.3203C25.6513 49.3203 25.8368 49.2729 26.0029 49.1786L35.4405 43.8295C35.7729 43.6413 35.9776 43.2932 35.9776 42.9162ZM26.54 46.439V39.3934L32.755 42.9162L26.54 46.439Z" fill="#FF9999"/>
<path fill-rule="evenodd" clip-rule="evenodd" d="M28.5498 52.0797C27.9581 52.0797 27.4756 52.5535 27.4756 53.1345C27.4756 53.7156 27.9581 54.1894 28.5498 54.1894C29.1419 54.1894 29.624 53.7156 29.624 53.1345C29.624 52.5535 29.1419 52.0797 28.5498 52.0797Z" fill="#FF9999"/>
</g>
<defs>
<clipPath id="clip0">
<rect width="55" height="53.9979" fill="white" transform="translate(0 0.19104)"/>
</clipPath>
</defs>
</svg>
